<svg version="1.1" xmlns="http://www.w3.org/2000/svg" xmlns:xlink="http://www.w3.org/1999/xlink" width="510" height="563"><defs/><g><g transform="translate(-14,-38) scale(1,1)"><rect fill="#ffffff" stroke="none" x="192" y="48" width="111" height="32"/></g><g transform="translate(-14,-38) scale(1,1)"><path fill="none" stroke="#000000" d="M 192 48 L 303 48 L 303 80 L 192 80 L 192 48 Z Z" stroke-miterlimit="10"/></g><g transform="translate(-14,-38) scale(1,1)"><g><path fill="none" stroke="none"/><text fill="#000000" stroke="none" font-family="Arial" font-size="13px" font-style="normal" font-weight="normal" text-decoration="none" x="208" y="70.5">Open Sudoku</text></g></g><g transform="translate(-14,-38) scale(1,1)"><rect fill="#ffffff" stroke="none" x="24" y="120" width="111" height="71"/></g><g transform="translate(-14,-38) scale(1,1)"><path fill="none" stroke="#000000" d="M 24 120 L 135 120 L 135 191 L 24 191 L 24 120 Z Z" stroke-miterlimit="10"/></g><g transform="translate(-14,-38) scale(1,1)"><g><path fill="none" stroke="none"/><text fill="#000000" stroke="none" font-family="Arial" font-size="13px" font-style="normal" font-weight="normal" text-decoration="none" x="36" y="142.5">Get Position of</text><text fill="#000000" stroke="none" font-family="Arial" font-size="13px" font-style="normal" font-weight="normal" text-decoration="none" x="41" y="155.5">Empty Fields</text><text fill="#000000" stroke="none" font-family="Arial" font-size="13px" font-style="normal" font-weight="normal" text-decoration="none" x="43" y="168.5">(Encoded as</text><text fill="#000000" stroke="none" font-family="Arial" font-size="13px" font-style="normal" font-weight="normal" text-decoration="none" x="72" y="181.5">'0')</text></g></g><g transform="translate(-14,-38) scale(1,1)"><path fill="none" stroke="#000000" d="M 192 80 L 88 80 M 88 80 A 8 8 0 0 0 80 88 L 80 120" stroke-miterlimit="10"/></g><g transform="translate(-14,-38) scale(1,1)"><path fill="#000000" stroke="none" d="M 75.79048224398402 109.83732514237585 L 80 120 L 84.20951775601598 109.83732514237585"/></g><g transform="translate(-14,-38) scale(1,1)"><path fill="none" stroke="#000000" d="M 75.79048224398402 109.83732514237585 L 80 120 L 84.20951775601598 109.83732514237585 L 75.79048224398402 109.83732514237585" stroke-miterlimit="10"/></g><g transform="translate(-14,-38) scale(1,1)"><rect fill="#ffffff" stroke="none" x="142" y="120" width="111" height="45"/></g><g transform="translate(-14,-38) scale(1,1)"><path fill="none" stroke="#000000" d="M 142 120 L 253 120 L 253 165 L 142 165 L 142 120 Z Z" stroke-miterlimit="10"/></g><g transform="translate(-14,-38) scale(1,1)"><g><path fill="none" stroke="none"/><text fill="#000000" stroke="none" font-family="Arial" font-size="13px" font-style="normal" font-weight="normal" text-decoration="none" x="187" y="142.5">Get</text><text fill="#000000" stroke="none" font-family="Arial" font-size="13px" font-style="normal" font-weight="normal" text-decoration="none" x="161" y="155.5">Submatrices</text></g></g><g transform="translate(-14,-38) scale(1,1)"><path fill="none" stroke="#000000" d="M 199 80 L 199 120" stroke-miterlimit="10"/></g><g transform="translate(-14,-38) scale(1,1)"><path fill="#000000" stroke="none" d="M 194.790482243984 109.83732514237585 L 199 120 L 203.209517756016 109.83732514237585"/></g><g transform="translate(-14,-38) scale(1,1)"><path fill="none" stroke="#000000" d="M 194.790482243984 109.83732514237585 L 199 120 L 203.209517756016 109.83732514237585 L 194.790482243984 109.83732514237585" stroke-miterlimit="10"/></g><g transform="translate(-14,-38) scale(1,1)"><rect fill="#ffffff" stroke="none" x="267" y="120" width="74" height="45"/></g><g transform="translate(-14,-38) scale(1,1)"><path fill="none" stroke="#000000" d="M 267 120 L 341 120 L 341 165 L 267 165 L 267 120 Z Z" stroke-miterlimit="10"/></g><g transform="translate(-14,-38) scale(1,1)"><g><path fill="none" stroke="none"/><text fill="#000000" stroke="none" font-family="Arial" font-size="13px" font-style="normal" font-weight="normal" text-decoration="none" x="293.5" y="142.5">Get</text><text fill="#000000" stroke="none" font-family="Arial" font-size="13px" font-style="normal" font-weight="normal" text-decoration="none" x="288" y="155.5">Rows</text></g></g><g transform="translate(-14,-38) scale(1,1)"><rect fill="#ffffff" stroke="none" x="360" y="120" width="77" height="45"/></g><g transform="translate(-14,-38) scale(1,1)"><path fill="none" stroke="#000000" d="M 360 120 L 437 120 L 437 165 L 360 165 L 360 120 Z Z" stroke-miterlimit="10"/></g><g transform="translate(-14,-38) scale(1,1)"><g><path fill="none" stroke="none"/><text fill="#000000" stroke="none" font-family="Arial" font-size="13px" font-style="normal" font-weight="normal" text-decoration="none" x="388" y="142.5">Get</text><text fill="#000000" stroke="none" font-family="Arial" font-size="13px" font-style="normal" font-weight="normal" text-decoration="none" x="369.5" y="155.5">Coloumns</text></g></g><g transform="translate(-14,-38) scale(1,1)"><path fill="none" stroke="#000000" d="M 303 80 L 301 80 M 301 80 A 8 8 0 0 1 309 88 L 309 120" stroke-miterlimit="10"/></g><g transform="translate(-14,-38) scale(1,1)"><path fill="#000000" stroke="none" d="M 304.790482243984 109.83732514237585 L 309 120 L 313.209517756016 109.83732514237585"/></g><g transform="translate(-14,-38) scale(1,1)"><path fill="none" stroke="#000000" d="M 304.790482243984 109.83732514237585 L 309 120 L 313.209517756016 109.83732514237585 L 304.790482243984 109.83732514237585" stroke-miterlimit="10"/></g><g transform="translate(-14,-38) scale(1,1)"><path fill="none" stroke="#000000" d="M 303 80 L 392 80 M 392 80 A 8 8 0 0 1 400 88 L 400 120" stroke-miterlimit="10"/></g><g transform="translate(-14,-38) scale(1,1)"><path fill="#000000" stroke="none" d="M 395.790482243984 109.83732514237585 L 400 120 L 404.209517756016 109.83732514237585"/></g><g transform="translate(-14,-38) scale(1,1)"><path fill="none" stroke="#000000" d="M 395.790482243984 109.83732514237585 L 400 120 L 404.209517756016 109.83732514237585 L 395.790482243984 109.83732514237585" stroke-miterlimit="10"/></g><g transform="translate(-14,-38) scale(1,1)"><rect fill="#ffffff" stroke="none" x="146" y="232" width="103" height="71"/></g><g transform="translate(-14,-38) scale(1,1)"><path fill="none" stroke="#000000" d="M 146 232 L 249 232 L 249 303 L 146 303 L 146 232 Z Z" stroke-miterlimit="10"/></g><g transform="translate(-14,-38) scale(1,1)"><g><path fill="none" stroke="none"/><text fill="#000000" stroke="none" font-family="Arial" font-size="13px" font-style="normal" font-weight="normal" text-decoration="none" x="168" y="254.5">Determine</text><text fill="#000000" stroke="none" font-family="Arial" font-size="13px" font-style="normal" font-weight="normal" text-decoration="none" x="175" y="267.5">Missing</text><text fill="#000000" stroke="none" font-family="Arial" font-size="13px" font-style="normal" font-weight="normal" text-decoration="none" x="164.5" y="280.5">Numbers in</text><text fill="#000000" stroke="none" font-family="Arial" font-size="13px" font-style="normal" font-weight="normal" text-decoration="none" x="161" y="293.5">Submatrices</text></g></g><g transform="translate(-14,-38) scale(1,1)"><rect fill="#ffffff" stroke="none" x="265" y="232" width="78" height="71"/></g><g transform="translate(-14,-38) scale(1,1)"><path fill="none" stroke="#000000" d="M 265 232 L 343 232 L 343 303 L 265 303 L 265 232 Z Z" stroke-miterlimit="10"/></g><g transform="translate(-14,-38) scale(1,1)"><g><path fill="none" stroke="none"/><text fill="#000000" stroke="none" font-family="Arial" font-size="13px" font-style="normal" font-weight="normal" text-decoration="none" x="274.5" y="254.5">Determine</text><text fill="#000000" stroke="none" font-family="Arial" font-size="13px" font-style="normal" font-weight="normal" text-decoration="none" x="281.5" y="267.5">Missing</text><text fill="#000000" stroke="none" font-family="Arial" font-size="13px" font-style="normal" font-weight="normal" text-decoration="none" x="278" y="280.5">Numbers</text><text fill="#000000" stroke="none" font-family="Arial" font-size="13px" font-style="normal" font-weight="normal" text-decoration="none" x="281" y="293.5">in Rows</text></g></g><g transform="translate(-14,-38) scale(1,1)"><rect fill="#ffffff" stroke="none" x="359" y="232" width="79" height="84"/></g><g transform="translate(-14,-38) scale(1,1)"><path fill="none" stroke="#000000" d="M 359 232 L 438 232 L 438 316 L 359 316 L 359 232 Z Z" stroke-miterlimit="10"/></g><g transform="translate(-14,-38) scale(1,1)"><g><path fill="none" stroke="none"/><text fill="#000000" stroke="none" font-family="Arial" font-size="13px" font-style="normal" font-weight="normal" text-decoration="none" x="369" y="254.5">Determine</text><text fill="#000000" stroke="none" font-family="Arial" font-size="13px" font-style="normal" font-weight="normal" text-decoration="none" x="376" y="267.5">Missing</text><text fill="#000000" stroke="none" font-family="Arial" font-size="13px" font-style="normal" font-weight="normal" text-decoration="none" x="372.5" y="280.5">Numbers</text><text fill="#000000" stroke="none" font-family="Arial" font-size="13px" font-style="normal" font-weight="normal" text-decoration="none" x="393.5" y="293.5">in</text><text fill="#000000" stroke="none" font-family="Arial" font-size="13px" font-style="normal" font-weight="normal" text-decoration="none" x="369.5" y="306.5">Coloumns</text></g></g><g transform="translate(-14,-38) scale(1,1)"><path fill="none" stroke="#000000" d="M 200 165 L 200 232" stroke-miterlimit="10"/></g><g transform="translate(-14,-38) scale(1,1)"><path fill="#000000" stroke="none" d="M 195.790482243984 221.83732514237585 L 200 232 L 204.209517756016 221.83732514237585"/></g><g transform="translate(-14,-38) scale(1,1)"><path fill="none" stroke="#000000" d="M 195.790482243984 221.83732514237585 L 200 232 L 204.209517756016 221.83732514237585 L 195.790482243984 221.83732514237585" stroke-miterlimit="10"/></g><g transform="translate(-14,-38) scale(1,1)"><path fill="none" stroke="#000000" d="M 312 165 L 312 232" stroke-miterlimit="10"/></g><g transform="translate(-14,-38) scale(1,1)"><path fill="#000000" stroke="none" d="M 307.790482243984 221.83732514237585 L 312 232 L 316.209517756016 221.83732514237585"/></g><g transform="translate(-14,-38) scale(1,1)"><path fill="none" stroke="#000000" d="M 307.790482243984 221.83732514237585 L 312 232 L 316.209517756016 221.83732514237585 L 307.790482243984 221.83732514237585" stroke-miterlimit="10"/></g><g transform="translate(-14,-38) scale(1,1)"><path fill="none" stroke="#000000" d="M 400 165 L 400 232" stroke-miterlimit="10"/></g><g transform="translate(-14,-38) scale(1,1)"><path fill="#000000" stroke="none" d="M 395.790482243984 221.83732514237585 L 400 232 L 404.209517756016 221.83732514237585"/></g><g transform="translate(-14,-38) scale(1,1)"><path fill="none" stroke="#000000" d="M 395.790482243984 221.83732514237585 L 400 232 L 404.209517756016 221.83732514237585 L 395.790482243984 221.83732514237585" stroke-miterlimit="10"/></g><g transform="translate(-14,-38) scale(1,1)"><rect fill="#ffffff" stroke="none" x="213" y="360" width="87" height="110"/></g><g transform="translate(-14,-38) scale(1,1)"><path fill="none" stroke="#000000" d="M 213 360 L 300 360 L 300 470 L 213 470 L 213 360 Z Z" stroke-miterlimit="10"/></g><g transform="translate(-14,-38) scale(1,1)"><g><path fill="none" stroke="none"/><text fill="#000000" stroke="none" font-family="Arial" font-size="13px" font-style="normal" font-weight="normal" text-decoration="none" x="227" y="382.5">Determine</text><text fill="#000000" stroke="none" font-family="Arial" font-size="13px" font-style="normal" font-weight="normal" text-decoration="none" x="222.5" y="395.5">Intersection</text><text fill="#000000" stroke="none" font-family="Arial" font-size="13px" font-style="normal" font-weight="normal" text-decoration="none" x="226.5" y="408.5">of Missing</text><text fill="#000000" stroke="none" font-family="Arial" font-size="13px" font-style="normal" font-weight="normal" text-decoration="none" x="223" y="421.5">Numbers at</text><text fill="#000000" stroke="none" font-family="Arial" font-size="13px" font-style="normal" font-weight="normal" text-decoration="none" x="242.5" y="434.5">each</text><text fill="#000000" stroke="none" font-family="Arial" font-size="13px" font-style="normal" font-weight="normal" text-decoration="none" x="233" y="447.5">Position</text></g></g><g transform="translate(-14,-38) scale(1,1)"><path fill="none" stroke="#000000" d="M 80 191 L 80 352 M 80 352 A 8 8 0 0 0 88 360 L 213 360" stroke-miterlimit="10"/></g><g transform="translate(-14,-38) scale(1,1)"><path fill="#000000" stroke="none" d="M 202.83732514237585 364.209517756016 L 213 360 L 202.83732514237585 355.790482243984"/></g><g transform="translate(-14,-38) scale(1,1)"><path fill="none" stroke="#000000" d="M 202.83732514237585 364.209517756016 L 213 360 L 202.83732514237585 355.790482243984 L 202.83732514237585 364.209517756016" stroke-miterlimit="10"/></g><g transform="translate(-14,-38) scale(1,1)"><path fill="none" stroke="#000000" d="M 200 303 L 200 352 M 200 352 A 8 8 0 0 0 208 360 L 213 360" stroke-miterlimit="10"/></g><g transform="translate(-14,-38) scale(1,1)"><path fill="#000000" stroke="none" d="M 202.83732514237585 364.209517756016 L 213 360 L 202.83732514237585 355.790482243984"/></g><g transform="translate(-14,-38) scale(1,1)"><path fill="none" stroke="#000000" d="M 202.83732514237585 364.209517756016 L 213 360 L 202.83732514237585 355.790482243984 L 202.83732514237585 364.209517756016" stroke-miterlimit="10"/></g><g transform="translate(-14,-38) scale(1,1)"><path fill="none" stroke="#000000" d="M 312 303 L 312 352 M 312 352 A 8 8 0 0 1 304 360 L 300 360" stroke-miterlimit="10"/></g><g transform="translate(-14,-38) scale(1,1)"><path fill="#000000" stroke="none" d="M 310.16267485762415 355.790482243984 L 300 360 L 310.16267485762415 364.209517756016"/></g><g transform="translate(-14,-38) scale(1,1)"><path fill="none" stroke="#000000" d="M 310.16267485762415 355.790482243984 L 300 360 L 310.16267485762415 364.209517756016 L 310.16267485762415 355.790482243984" stroke-miterlimit="10"/></g><g transform="translate(-14,-38) scale(1,1)"><path fill="none" stroke="#000000" d="M 361 316 L 361 352 M 361 352 A 8 8 0 0 1 353 360 L 300 360" stroke-miterlimit="10"/></g><g transform="translate(-14,-38) scale(1,1)"><path fill="#000000" stroke="none" d="M 310.16267485762415 355.790482243984 L 300 360 L 310.16267485762415 364.209517756016"/></g><g transform="translate(-14,-38) scale(1,1)"><path fill="none" stroke="#000000" d="M 310.16267485762415 355.790482243984 L 300 360 L 310.16267485762415 364.209517756016 L 310.16267485762415 355.790482243984" stroke-miterlimit="10"/></g><g transform="translate(-14,-38) scale(1,1)"><path fill="#ffffff" stroke="none" d="M 200 549.5 L 256.5 524 L 313 549.5 L 256.5 575 L 200 549.5"/></g><g transform="translate(-14,-38) scale(1,1)"><path fill="none" stroke="#000000" d="M 200 549.5 L 256.5 524 L 313 549.5 L 256.5 575 L 200 549.5 L 200 549.5" stroke-miterlimit="10"/></g><g transform="translate(-14,-38) scale(1,1)"><g><path fill="none" stroke="none"/><text fill="#000000" stroke="none" font-family="Arial" font-size="13px" font-style="normal" font-weight="normal" text-decoration="none" x="230.5" y="549.5">Only one</text><text fill="#000000" stroke="none" font-family="Arial" font-size="13px" font-style="normal" font-weight="normal" text-decoration="none" x="230.5" y="562.5">missing?</text></g></g><g transform="translate(-14,-38) scale(1,1)"><path fill="none" stroke="#000000" d="M 256 470 L 256 524" stroke-miterlimit="10"/></g><g transform="translate(-14,-38) scale(1,1)"><path fill="#000000" stroke="none" d="M 251.790482243984 513.8373251423759 L 256 524 L 260.209517756016 513.8373251423759"/></g><g transform="translate(-14,-38) scale(1,1)"><path fill="none" stroke="#000000" d="M 251.790482243984 513.8373251423759 L 256 524 L 260.209517756016 513.8373251423759 L 251.790482243984 513.8373251423759" stroke-miterlimit="10"/></g><g transform="translate(-14,-38) scale(1,1)"><rect fill="#ffffff" stroke="none" x="440" y="507" width="74" height="84"/></g><g transform="translate(-14,-38) scale(1,1)"><path fill="none" stroke="#000000" d="M 440 507 L 514 507 L 514 591 L 440 591 L 440 507 Z Z" stroke-miterlimit="10"/></g><g transform="translate(-14,-38) scale(1,1)"><g><path fill="none" stroke="none"/><text fill="#000000" stroke="none" font-family="Arial" font-size="13px" font-style="normal" font-weight="normal" text-decoration="none" x="460.5" y="529.5">Insert</text><text fill="#000000" stroke="none" font-family="Arial" font-size="13px" font-style="normal" font-weight="normal" text-decoration="none" x="454.5" y="542.5">Missing</text><text fill="#000000" stroke="none" font-family="Arial" font-size="13px" font-style="normal" font-weight="normal" text-decoration="none" x="455.5" y="555.5">number</text><text fill="#000000" stroke="none" font-family="Arial" font-size="13px" font-style="normal" font-weight="normal" text-decoration="none" x="471.5" y="568.5">at</text><text fill="#000000" stroke="none" font-family="Arial" font-size="13px" font-style="normal" font-weight="normal" text-decoration="none" x="453.5" y="581.5">Position</text></g></g><g transform="translate(-14,-38) scale(1,1)"><path fill="none" stroke="#000000" d="M 313 549 L 440 549" stroke-miterlimit="10"/></g><g transform="translate(-14,-38) scale(1,1)"><path fill="#000000" stroke="none" d="M 429.83732514237585 553.209517756016 L 440 549 L 429.83732514237585 544.790482243984"/></g><g transform="translate(-14,-38) scale(1,1)"><path fill="none" stroke="#000000" d="M 429.83732514237585 553.209517756016 L 440 549 L 429.83732514237585 544.790482243984 L 429.83732514237585 553.209517756016" stroke-miterlimit="10"/></g><g transform="translate(-14,-38) scale(1,1)"><g><path fill="none" stroke="none"/><text fill="#000000" stroke="none" font-family="Arial" font-size="13px" font-style="normal" font-weight="normal" text-decoration="none" x="364.5" y="540.5">Yes</text></g></g></g></svg>