<svg version="1.1" xmlns="http://www.w3.org/2000/svg" xmlns:xlink="http://www.w3.org/1999/xlink" width="661" height="1417"><defs/><g><g transform="translate(-246,-62) scale(1,1)"><rect fill="#ffffff" stroke="none" x="408" y="296" width="111" height="45"/></g><g transform="translate(-246,-62) scale(1,1)"><path fill="none" stroke="#000000" d="M 408 296 L 519 296 L 519 341 L 408 341 L 408 296 Z Z" stroke-miterlimit="10"/></g><g transform="translate(-246,-62) scale(1,1)"><g><path fill="none" stroke="none"/><text fill="#000000" stroke="none" font-family="Arial" font-size="13px" font-style="normal" font-weight="normal" text-decoration="none" x="423.5" y="318.5">Processing of</text><text fill="#000000" stroke="none" font-family="Arial" font-size="13px" font-style="normal" font-weight="normal" text-decoration="none" x="441.5" y="331.5">Sudoku</text></g></g><g transform="translate(-246,-62) scale(1,1)"><rect fill="#ffffff" stroke="none" x="256" y="360" width="111" height="71"/></g><g transform="translate(-246,-62) scale(1,1)"><path fill="none" stroke="#000000" d="M 256 360 L 367 360 L 367 431 L 256 431 L 256 360 Z Z" stroke-miterlimit="10"/></g><g transform="translate(-246,-62) scale(1,1)"><g><path fill="none" stroke="none"/><text fill="#000000" stroke="none" font-family="Arial" font-size="13px" font-style="normal" font-weight="normal" text-decoration="none" x="268" y="382.5">Get Position of</text><text fill="#000000" stroke="none" font-family="Arial" font-size="13px" font-style="normal" font-weight="normal" text-decoration="none" x="273" y="395.5">Empty Fields</text><text fill="#000000" stroke="none" font-family="Arial" font-size="13px" font-style="normal" font-weight="normal" text-decoration="none" x="275" y="408.5">(Encoded as</text><text fill="#000000" stroke="none" font-family="Arial" font-size="13px" font-style="normal" font-weight="normal" text-decoration="none" x="304" y="421.5">'0')</text></g></g><g transform="translate(-246,-62) scale(1,1)"><path fill="none" stroke="#000000" d="M 408 312 L 320 312 M 320 312 A 8 8 0 0 0 312 320 L 312 360" stroke-miterlimit="10"/></g><g transform="translate(-246,-62) scale(1,1)"><path fill="#000000" stroke="none" d="M 307.790482243984 349.83732514237585 L 312 360 L 316.209517756016 349.83732514237585"/></g><g transform="translate(-246,-62) scale(1,1)"><path fill="none" stroke="#000000" d="M 307.790482243984 349.83732514237585 L 312 360 L 316.209517756016 349.83732514237585 L 307.790482243984 349.83732514237585" stroke-miterlimit="10"/></g><g transform="translate(-246,-62) scale(1,1)"><rect fill="#ffffff" stroke="none" x="374" y="360" width="111" height="45"/></g><g transform="translate(-246,-62) scale(1,1)"><path fill="none" stroke="#000000" d="M 374 360 L 485 360 L 485 405 L 374 405 L 374 360 Z Z" stroke-miterlimit="10"/></g><g transform="translate(-246,-62) scale(1,1)"><g><path fill="none" stroke="none"/><text fill="#000000" stroke="none" font-family="Arial" font-size="13px" font-style="normal" font-weight="normal" text-decoration="none" x="419" y="382.5">Get</text><text fill="#000000" stroke="none" font-family="Arial" font-size="13px" font-style="normal" font-weight="normal" text-decoration="none" x="393" y="395.5">Submatrices</text></g></g><g transform="translate(-246,-62) scale(1,1)"><path fill="none" stroke="#000000" d="M 431 341 L 431 360" stroke-miterlimit="10"/></g><g transform="translate(-246,-62) scale(1,1)"><path fill="#000000" stroke="none" d="M 426.790482243984 349.83732514237585 L 431 360 L 435.209517756016 349.83732514237585"/></g><g transform="translate(-246,-62) scale(1,1)"><path fill="none" stroke="#000000" d="M 426.790482243984 349.83732514237585 L 431 360 L 435.209517756016 349.83732514237585 L 426.790482243984 349.83732514237585" stroke-miterlimit="10"/></g><g transform="translate(-246,-62) scale(1,1)"><rect fill="#ffffff" stroke="none" x="499" y="360" width="74" height="45"/></g><g transform="translate(-246,-62) scale(1,1)"><path fill="none" stroke="#000000" d="M 499 360 L 573 360 L 573 405 L 499 405 L 499 360 Z Z" stroke-miterlimit="10"/></g><g transform="translate(-246,-62) scale(1,1)"><g><path fill="none" stroke="none"/><text fill="#000000" stroke="none" font-family="Arial" font-size="13px" font-style="normal" font-weight="normal" text-decoration="none" x="525.5" y="382.5">Get</text><text fill="#000000" stroke="none" font-family="Arial" font-size="13px" font-style="normal" font-weight="normal" text-decoration="none" x="520" y="395.5">Rows</text></g></g><g transform="translate(-246,-62) scale(1,1)"><rect fill="#ffffff" stroke="none" x="592" y="360" width="77" height="45"/></g><g transform="translate(-246,-62) scale(1,1)"><path fill="none" stroke="#000000" d="M 592 360 L 669 360 L 669 405 L 592 405 L 592 360 Z Z" stroke-miterlimit="10"/></g><g transform="translate(-246,-62) scale(1,1)"><g><path fill="none" stroke="none"/><text fill="#000000" stroke="none" font-family="Arial" font-size="13px" font-style="normal" font-weight="normal" text-decoration="none" x="620" y="382.5">Get</text><text fill="#000000" stroke="none" font-family="Arial" font-size="13px" font-style="normal" font-weight="normal" text-decoration="none" x="601.5" y="395.5">Coloumns</text></g></g><g transform="translate(-246,-62) scale(1,1)"><path fill="none" stroke="#000000" d="M 519 312 L 533 312 M 533 312 A 8 8 0 0 1 541 320 L 541 360" stroke-miterlimit="10"/></g><g transform="translate(-246,-62) scale(1,1)"><path fill="#000000" stroke="none" d="M 536.790482243984 349.83732514237585 L 541 360 L 545.209517756016 349.83732514237585"/></g><g transform="translate(-246,-62) scale(1,1)"><path fill="none" stroke="#000000" d="M 536.790482243984 349.83732514237585 L 541 360 L 545.209517756016 349.83732514237585 L 536.790482243984 349.83732514237585" stroke-miterlimit="10"/></g><g transform="translate(-246,-62) scale(1,1)"><path fill="none" stroke="#000000" d="M 519 312 L 624 312 M 624 312 A 8 8 0 0 1 632 320 L 632 360" stroke-miterlimit="10"/></g><g transform="translate(-246,-62) scale(1,1)"><path fill="#000000" stroke="none" d="M 627.790482243984 349.83732514237585 L 632 360 L 636.209517756016 349.83732514237585"/></g><g transform="translate(-246,-62) scale(1,1)"><path fill="none" stroke="#000000" d="M 627.790482243984 349.83732514237585 L 632 360 L 636.209517756016 349.83732514237585 L 627.790482243984 349.83732514237585" stroke-miterlimit="10"/></g><g transform="translate(-246,-62) scale(1,1)"><rect fill="#ffffff" stroke="none" x="378" y="472" width="103" height="71"/></g><g transform="translate(-246,-62) scale(1,1)"><path fill="none" stroke="#000000" d="M 378 472 L 481 472 L 481 543 L 378 543 L 378 472 Z Z" stroke-miterlimit="10"/></g><g transform="translate(-246,-62) scale(1,1)"><g><path fill="none" stroke="none"/><text fill="#000000" stroke="none" font-family="Arial" font-size="13px" font-style="normal" font-weight="normal" text-decoration="none" x="400" y="494.5">Determine</text><text fill="#000000" stroke="none" font-family="Arial" font-size="13px" font-style="normal" font-weight="normal" text-decoration="none" x="407" y="507.5">Missing</text><text fill="#000000" stroke="none" font-family="Arial" font-size="13px" font-style="normal" font-weight="normal" text-decoration="none" x="396.5" y="520.5">Numbers in</text><text fill="#000000" stroke="none" font-family="Arial" font-size="13px" font-style="normal" font-weight="normal" text-decoration="none" x="393" y="533.5">Submatrices</text></g></g><g transform="translate(-246,-62) scale(1,1)"><rect fill="#ffffff" stroke="none" x="497" y="472" width="78" height="71"/></g><g transform="translate(-246,-62) scale(1,1)"><path fill="none" stroke="#000000" d="M 497 472 L 575 472 L 575 543 L 497 543 L 497 472 Z Z" stroke-miterlimit="10"/></g><g transform="translate(-246,-62) scale(1,1)"><g><path fill="none" stroke="none"/><text fill="#000000" stroke="none" font-family="Arial" font-size="13px" font-style="normal" font-weight="normal" text-decoration="none" x="506.5" y="494.5">Determine</text><text fill="#000000" stroke="none" font-family="Arial" font-size="13px" font-style="normal" font-weight="normal" text-decoration="none" x="513.5" y="507.5">Missing</text><text fill="#000000" stroke="none" font-family="Arial" font-size="13px" font-style="normal" font-weight="normal" text-decoration="none" x="510" y="520.5">Numbers</text><text fill="#000000" stroke="none" font-family="Arial" font-size="13px" font-style="normal" font-weight="normal" text-decoration="none" x="513" y="533.5">in Rows</text></g></g><g transform="translate(-246,-62) scale(1,1)"><rect fill="#ffffff" stroke="none" x="591" y="472" width="79" height="84"/></g><g transform="translate(-246,-62) scale(1,1)"><path fill="none" stroke="#000000" d="M 591 472 L 670 472 L 670 556 L 591 556 L 591 472 Z Z" stroke-miterlimit="10"/></g><g transform="translate(-246,-62) scale(1,1)"><g><path fill="none" stroke="none"/><text fill="#000000" stroke="none" font-family="Arial" font-size="13px" font-style="normal" font-weight="normal" text-decoration="none" x="601" y="494.5">Determine</text><text fill="#000000" stroke="none" font-family="Arial" font-size="13px" font-style="normal" font-weight="normal" text-decoration="none" x="608" y="507.5">Missing</text><text fill="#000000" stroke="none" font-family="Arial" font-size="13px" font-style="normal" font-weight="normal" text-decoration="none" x="604.5" y="520.5">Numbers</text><text fill="#000000" stroke="none" font-family="Arial" font-size="13px" font-style="normal" font-weight="normal" text-decoration="none" x="625.5" y="533.5">in</text><text fill="#000000" stroke="none" font-family="Arial" font-size="13px" font-style="normal" font-weight="normal" text-decoration="none" x="601.5" y="546.5">Coloumns</text></g></g><g transform="translate(-246,-62) scale(1,1)"><path fill="none" stroke="#000000" d="M 432 405 L 432 472" stroke-miterlimit="10"/></g><g transform="translate(-246,-62) scale(1,1)"><path fill="#000000" stroke="none" d="M 427.790482243984 461.83732514237585 L 432 472 L 436.209517756016 461.83732514237585"/></g><g transform="translate(-246,-62) scale(1,1)"><path fill="none" stroke="#000000" d="M 427.790482243984 461.83732514237585 L 432 472 L 436.209517756016 461.83732514237585 L 427.790482243984 461.83732514237585" stroke-miterlimit="10"/></g><g transform="translate(-246,-62) scale(1,1)"><path fill="none" stroke="#000000" d="M 544 405 L 544 472" stroke-miterlimit="10"/></g><g transform="translate(-246,-62) scale(1,1)"><path fill="#000000" stroke="none" d="M 539.790482243984 461.83732514237585 L 544 472 L 548.209517756016 461.83732514237585"/></g><g transform="translate(-246,-62) scale(1,1)"><path fill="none" stroke="#000000" d="M 539.790482243984 461.83732514237585 L 544 472 L 548.209517756016 461.83732514237585 L 539.790482243984 461.83732514237585" stroke-miterlimit="10"/></g><g transform="translate(-246,-62) scale(1,1)"><path fill="none" stroke="#000000" d="M 632 405 L 632 472" stroke-miterlimit="10"/></g><g transform="translate(-246,-62) scale(1,1)"><path fill="#000000" stroke="none" d="M 627.790482243984 461.83732514237585 L 632 472 L 636.209517756016 461.83732514237585"/></g><g transform="translate(-246,-62) scale(1,1)"><path fill="none" stroke="#000000" d="M 627.790482243984 461.83732514237585 L 632 472 L 636.209517756016 461.83732514237585 L 627.790482243984 461.83732514237585" stroke-miterlimit="10"/></g><g transform="translate(-246,-62) scale(1,1)"><rect fill="#ffffff" stroke="none" x="445" y="600" width="87" height="110"/></g><g transform="translate(-246,-62) scale(1,1)"><path fill="none" stroke="#000000" d="M 445 600 L 532 600 L 532 710 L 445 710 L 445 600 Z Z" stroke-miterlimit="10"/></g><g transform="translate(-246,-62) scale(1,1)"><g><path fill="none" stroke="none"/><text fill="#000000" stroke="none" font-family="Arial" font-size="13px" font-style="normal" font-weight="normal" text-decoration="none" x="459" y="622.5">Determine</text><text fill="#000000" stroke="none" font-family="Arial" font-size="13px" font-style="normal" font-weight="normal" text-decoration="none" x="454.5" y="635.5">Intersection</text><text fill="#000000" stroke="none" font-family="Arial" font-size="13px" font-style="normal" font-weight="normal" text-decoration="none" x="458.5" y="648.5">of Missing</text><text fill="#000000" stroke="none" font-family="Arial" font-size="13px" font-style="normal" font-weight="normal" text-decoration="none" x="455" y="661.5">Numbers at</text><text fill="#000000" stroke="none" font-family="Arial" font-size="13px" font-style="normal" font-weight="normal" text-decoration="none" x="474.5" y="674.5">each</text><text fill="#000000" stroke="none" font-family="Arial" font-size="13px" font-style="normal" font-weight="normal" text-decoration="none" x="465" y="687.5">Position</text></g></g><g transform="translate(-246,-62) scale(1,1)"><path fill="none" stroke="#000000" d="M 312 431 L 312 640 M 312 640 A 8 8 0 0 0 320 648 L 445 648" stroke-miterlimit="10"/></g><g transform="translate(-246,-62) scale(1,1)"><path fill="#000000" stroke="none" d="M 434.83732514237585 652.209517756016 L 445 648 L 434.83732514237585 643.790482243984"/></g><g transform="translate(-246,-62) scale(1,1)"><path fill="none" stroke="#000000" d="M 434.83732514237585 652.209517756016 L 445 648 L 434.83732514237585 643.790482243984 L 434.83732514237585 652.209517756016" stroke-miterlimit="10"/></g><g transform="translate(-246,-62) scale(1,1)"><path fill="none" stroke="#000000" d="M 432 543 L 432 640 M 432 640 A 8 8 0 0 0 440 648 L 445 648" stroke-miterlimit="10"/></g><g transform="translate(-246,-62) scale(1,1)"><path fill="#000000" stroke="none" d="M 434.83732514237585 652.209517756016 L 445 648 L 434.83732514237585 643.790482243984"/></g><g transform="translate(-246,-62) scale(1,1)"><path fill="none" stroke="#000000" d="M 434.83732514237585 652.209517756016 L 445 648 L 434.83732514237585 643.790482243984 L 434.83732514237585 652.209517756016" stroke-miterlimit="10"/></g><g transform="translate(-246,-62) scale(1,1)"><path fill="none" stroke="#000000" d="M 544 543 L 544 640 M 544 640 A 8 8 0 0 1 536 648 L 532 648" stroke-miterlimit="10"/></g><g transform="translate(-246,-62) scale(1,1)"><path fill="#000000" stroke="none" d="M 542.1626748576241 643.790482243984 L 532 648 L 542.1626748576241 652.209517756016"/></g><g transform="translate(-246,-62) scale(1,1)"><path fill="none" stroke="#000000" d="M 542.1626748576241 643.790482243984 L 532 648 L 542.1626748576241 652.209517756016 L 542.1626748576241 643.790482243984" stroke-miterlimit="10"/></g><g transform="translate(-246,-62) scale(1,1)"><path fill="none" stroke="#000000" d="M 632 556 L 632 640 M 632 640 A 8 8 0 0 1 624 648 L 532 648" stroke-miterlimit="10"/></g><g transform="translate(-246,-62) scale(1,1)"><path fill="#000000" stroke="none" d="M 542.1626748576241 643.790482243984 L 532 648 L 542.1626748576241 652.209517756016"/></g><g transform="translate(-246,-62) scale(1,1)"><path fill="none" stroke="#000000" d="M 542.1626748576241 643.790482243984 L 532 648 L 542.1626748576241 652.209517756016 L 542.1626748576241 643.790482243984" stroke-miterlimit="10"/></g><g transform="translate(-246,-62) scale(1,1)"><path fill="#ffffff" stroke="none" d="M 432 789.5 L 488.5 764 L 545 789.5 L 488.5 815 L 432 789.5"/></g><g transform="translate(-246,-62) scale(1,1)"><path fill="none" stroke="#000000" d="M 432 789.5 L 488.5 764 L 545 789.5 L 488.5 815 L 432 789.5 L 432 789.5" stroke-miterlimit="10"/></g><g transform="translate(-246,-62) scale(1,1)"><g><path fill="none" stroke="none"/><text fill="#000000" stroke="none" font-family="Arial" font-size="13px" font-style="normal" font-weight="normal" text-decoration="none" x="462.5" y="789.5">Only one</text><text fill="#000000" stroke="none" font-family="Arial" font-size="13px" font-style="normal" font-weight="normal" text-decoration="none" x="462.5" y="802.5">missing?</text></g></g><g transform="translate(-246,-62) scale(1,1)"><path fill="none" stroke="#000000" d="M 488 710 L 488 764" stroke-miterlimit="10"/></g><g transform="translate(-246,-62) scale(1,1)"><path fill="#000000" stroke="none" d="M 483.790482243984 753.8373251423759 L 488 764 L 492.209517756016 753.8373251423759"/></g><g transform="translate(-246,-62) scale(1,1)"><path fill="none" stroke="#000000" d="M 483.790482243984 753.8373251423759 L 488 764 L 492.209517756016 753.8373251423759 L 483.790482243984 753.8373251423759" stroke-miterlimit="10"/></g><g transform="translate(-246,-62) scale(1,1)"><rect fill="#ffffff" stroke="none" x="712" y="944" width="74" height="84"/></g><g transform="translate(-246,-62) scale(1,1)"><path fill="none" stroke="#000000" d="M 712 944 L 786 944 L 786 1028 L 712 1028 L 712 944 Z Z" stroke-miterlimit="10"/></g><g transform="translate(-246,-62) scale(1,1)"><g><path fill="none" stroke="none"/><text fill="#000000" stroke="none" font-family="Arial" font-size="13px" font-style="normal" font-weight="normal" text-decoration="none" x="732.5" y="966.5">Insert</text><text fill="#000000" stroke="none" font-family="Arial" font-size="13px" font-style="normal" font-weight="normal" text-decoration="none" x="726.5" y="979.5">missing</text><text fill="#000000" stroke="none" font-family="Arial" font-size="13px" font-style="normal" font-weight="normal" text-decoration="none" x="726.5" y="992.5">Number</text><text fill="#000000" stroke="none" font-family="Arial" font-size="13px" font-style="normal" font-weight="normal" text-decoration="none" x="743.5" y="1005.5">at</text><text fill="#000000" stroke="none" font-family="Arial" font-size="13px" font-style="normal" font-weight="normal" text-decoration="none" x="725.5" y="1018.5">Position</text></g></g><g transform="translate(-246,-62) scale(1,1)"><path fill="none" stroke="#000000" d="M 545 789 L 741 789 M 741 789 A 8 8 0 0 1 749 797 L 749 944" stroke-miterlimit="10"/></g><g transform="translate(-246,-62) scale(1,1)"><path fill="#000000" stroke="none" d="M 744.790482243984 933.8373251423759 L 749 944 L 753.209517756016 933.8373251423759"/></g><g transform="translate(-246,-62) scale(1,1)"><path fill="none" stroke="#000000" d="M 744.790482243984 933.8373251423759 L 749 944 L 753.209517756016 933.8373251423759 L 744.790482243984 933.8373251423759" stroke-miterlimit="10"/></g><g transform="translate(-246,-62) scale(1,1)"><g><path fill="none" stroke="none"/><text fill="#000000" stroke="none" font-family="Arial" font-size="13px" font-style="normal" font-weight="normal" text-decoration="none" x="752.5" y="794.5">Yes</text></g></g><g transform="translate(-246,-62) scale(1,1)"><rect fill="#ffffff" stroke="none" x="448" y="872" width="79" height="97"/></g><g transform="translate(-246,-62) scale(1,1)"><path fill="none" stroke="#000000" d="M 448 872 L 527 872 L 527 969 L 448 969 L 448 872 Z Z" stroke-miterlimit="10"/></g><g transform="translate(-246,-62) scale(1,1)"><g><path fill="none" stroke="none"/><text fill="#000000" stroke="none" font-family="Arial" font-size="13px" font-style="normal" font-weight="normal" text-decoration="none" x="458" y="894.5">Determine</text><text fill="#000000" stroke="none" font-family="Arial" font-size="13px" font-style="normal" font-weight="normal" text-decoration="none" x="464" y="907.5">in which</text><text fill="#000000" stroke="none" font-family="Arial" font-size="13px" font-style="normal" font-weight="normal" text-decoration="none" x="458" y="920.5">Submatrix</text><text fill="#000000" stroke="none" font-family="Arial" font-size="13px" font-style="normal" font-weight="normal" text-decoration="none" x="478.5" y="933.5">the</text><text fill="#000000" stroke="none" font-family="Arial" font-size="13px" font-style="normal" font-weight="normal" text-decoration="none" x="464" y="946.5">Position</text><text fill="#000000" stroke="none" font-family="Arial" font-size="13px" font-style="normal" font-weight="normal" text-decoration="none" x="459.5" y="959.5">is located</text></g></g><g transform="translate(-246,-62) scale(1,1)"><path fill="none" stroke="#000000" d="M 488 815 L 488 872" stroke-miterlimit="10"/></g><g transform="translate(-246,-62) scale(1,1)"><path fill="#000000" stroke="none" d="M 483.790482243984 861.8373251423759 L 488 872 L 492.209517756016 861.8373251423759"/></g><g transform="translate(-246,-62) scale(1,1)"><path fill="none" stroke="#000000" d="M 483.790482243984 861.8373251423759 L 488 872 L 492.209517756016 861.8373251423759 L 483.790482243984 861.8373251423759" stroke-miterlimit="10"/></g><g transform="translate(-246,-62) scale(1,1)"><g><path fill="none" stroke="none"/><text fill="#000000" stroke="none" font-family="Arial" font-size="13px" font-style="normal" font-weight="normal" text-decoration="none" x="493.5" y="848.5">No</text></g></g><g transform="translate(-246,-62) scale(1,1)"><path fill="#ffffff" stroke="none" d="M 424 1109.5 L 480.5 1032 L 537 1109.5 L 480.5 1187 L 424 1109.5"/></g><g transform="translate(-246,-62) scale(1,1)"><path fill="none" stroke="#000000" d="M 424 1109.5 L 480.5 1032 L 537 1109.5 L 480.5 1187 L 424 1109.5 L 424 1109.5" stroke-miterlimit="10"/></g><g transform="translate(-246,-62) scale(1,1)"><g><path fill="none" stroke="none"/><text fill="#000000" stroke="none" font-family="Arial" font-size="13px" font-style="normal" font-weight="normal" text-decoration="none" x="456.5" y="1083.5">All other</text><text fill="#000000" stroke="none" font-family="Arial" font-size="13px" font-style="normal" font-weight="normal" text-decoration="none" x="454.5" y="1096.5">rows and</text><text fill="#000000" stroke="none" font-family="Arial" font-size="13px" font-style="normal" font-weight="normal" text-decoration="none" x="452.5" y="1109.5">coloumns</text><text fill="#000000" stroke="none" font-family="Arial" font-size="13px" font-style="normal" font-weight="normal" text-decoration="none" x="458" y="1122.5">blocked</text><text fill="#000000" stroke="none" font-family="Arial" font-size="13px" font-style="normal" font-weight="normal" text-decoration="none" x="460.5" y="1135.5">for one</text><text fill="#000000" stroke="none" font-family="Arial" font-size="13px" font-style="normal" font-weight="normal" text-decoration="none" x="455.5" y="1148.5">number?</text></g></g><g transform="translate(-246,-62) scale(1,1)"><path fill="none" stroke="#000000" d="M 537 1112 L 744 1112 M 744 1112 A 8 8 0 0 0 752 1104 L 752 1028" stroke-miterlimit="10"/></g><g transform="translate(-246,-62) scale(1,1)"><path fill="#000000" stroke="none" d="M 756.209517756016 1038.162674857624 L 752 1028 L 747.790482243984 1038.162674857624"/></g><g transform="translate(-246,-62) scale(1,1)"><path fill="none" stroke="#000000" d="M 756.209517756016 1038.162674857624 L 752 1028 L 747.790482243984 1038.162674857624 L 756.209517756016 1038.162674857624" stroke-miterlimit="10"/></g><g transform="translate(-246,-62) scale(1,1)"><g><path fill="none" stroke="none"/><text fill="#000000" stroke="none" font-family="Arial" font-size="13px" font-style="normal" font-weight="normal" text-decoration="none" x="759.5" y="1084.5">Yes</text></g></g><g transform="translate(-246,-62) scale(1,1)"><path fill="none" stroke="#000000" d="M 480 969 L 480 1032" stroke-miterlimit="10"/></g><g transform="translate(-246,-62) scale(1,1)"><path fill="#000000" stroke="none" d="M 475.790482243984 1021.8373251423759 L 480 1032 L 484.209517756016 1021.8373251423759"/></g><g transform="translate(-246,-62) scale(1,1)"><path fill="none" stroke="#000000" d="M 475.790482243984 1021.8373251423759 L 480 1032 L 484.209517756016 1021.8373251423759 L 475.790482243984 1021.8373251423759" stroke-miterlimit="10"/></g><g transform="translate(-246,-62) scale(1,1)"><path fill="#ffffff" stroke="none" d="M 416 1378.5 L 481.5 1288 L 547 1378.5 L 481.5 1469 L 416 1378.5"/></g><g transform="translate(-246,-62) scale(1,1)"><path fill="none" stroke="#000000" d="M 416 1378.5 L 481.5 1288 L 547 1378.5 L 481.5 1469 L 416 1378.5 L 416 1378.5" stroke-miterlimit="10"/></g><g transform="translate(-246,-62) scale(1,1)"><g><path fill="none" stroke="none"/><text fill="#000000" stroke="none" font-family="Arial" font-size="13px" font-style="normal" font-weight="normal" text-decoration="none" x="455" y="1352.5">Are there</text><text fill="#000000" stroke="none" font-family="Arial" font-size="13px" font-style="normal" font-weight="normal" text-decoration="none" x="455.5" y="1365.5">rows and</text><text fill="#000000" stroke="none" font-family="Arial" font-size="13px" font-style="normal" font-weight="normal" text-decoration="none" x="453.5" y="1378.5">coloumns</text><text fill="#000000" stroke="none" font-family="Arial" font-size="13px" font-style="normal" font-weight="normal" text-decoration="none" x="453.5" y="1391.5">completly</text><text fill="#000000" stroke="none" font-family="Arial" font-size="13px" font-style="normal" font-weight="normal" text-decoration="none" x="450" y="1404.5">filled in the</text><text fill="#000000" stroke="none" font-family="Arial" font-size="13px" font-style="normal" font-weight="normal" text-decoration="none" x="448.5" y="1417.5">Submatrix?</text></g></g><g transform="translate(-246,-62) scale(1,1)"><path fill="none" stroke="#000000" d="M 481 1187 L 481 1288" stroke-miterlimit="10"/></g><g transform="translate(-246,-62) scale(1,1)"><path fill="#000000" stroke="none" d="M 476.790482243984 1277.837325142376 L 481 1288 L 485.209517756016 1277.837325142376"/></g><g transform="translate(-246,-62) scale(1,1)"><path fill="none" stroke="#000000" d="M 476.790482243984 1277.837325142376 L 481 1288 L 485.209517756016 1277.837325142376 L 476.790482243984 1277.837325142376" stroke-miterlimit="10"/></g><g transform="translate(-246,-62) scale(1,1)"><g><path fill="none" stroke="none"/><text fill="#000000" stroke="none" font-family="Arial" font-size="13px" font-style="normal" font-weight="normal" text-decoration="none" x="486.5" y="1242.5">No</text></g></g><g transform="translate(-246,-62) scale(1,1)"><rect fill="#ffffff" stroke="none" x="408" y="72" width="112" height="32"/></g><g transform="translate(-246,-62) scale(1,1)"><path fill="none" stroke="#000000" d="M 408 72 L 520 72 L 520 104 L 408 104 L 408 72 Z Z" stroke-miterlimit="10"/></g><g transform="translate(-246,-62) scale(1,1)"><g><path fill="none" stroke="none"/><text fill="#000000" stroke="none" font-family="Arial" font-size="13px" font-style="normal" font-weight="normal" text-decoration="none" x="424.5" y="94.5">Open Sudoku</text></g></g><g transform="translate(-246,-62) scale(1,1)"><path fill="none" stroke="#000000" d="M 786 984 L 888 984 M 888 984 A 8 8 0 0 0 896 976 L 896 288 M 896 288 A 8 8 0 0 0 888 280 L 544 280 M 544 280 A 8 8 0 0 1 536 272 L 536 200 M 536 200 A 8 8 0 0 0 528 192 L 521 192" stroke-miterlimit="10"/></g><g transform="translate(-246,-62) scale(1,1)"><path fill="#000000" stroke="none" d="M 531.1626748576241 187.790482243984 L 521 192 L 531.1626748576241 196.209517756016"/></g><g transform="translate(-246,-62) scale(1,1)"><path fill="none" stroke="#000000" d="M 531.1626748576241 187.790482243984 L 521 192 L 531.1626748576241 196.209517756016 L 531.1626748576241 187.790482243984" stroke-miterlimit="10"/></g><g transform="translate(-246,-62) scale(1,1)"><path fill="#ffffff" stroke="none" d="M 408 192.5 L 464.5 128 L 521 192.5 L 464.5 257 L 408 192.5"/></g><g transform="translate(-246,-62) scale(1,1)"><path fill="none" stroke="#000000" d="M 408 192.5 L 464.5 128 L 521 192.5 L 464.5 257 L 408 192.5 L 408 192.5" stroke-miterlimit="10"/></g><g transform="translate(-246,-62) scale(1,1)"><g><path fill="none" stroke="none"/><text fill="#000000" stroke="none" font-family="Arial" font-size="13px" font-style="normal" font-weight="normal" text-decoration="none" x="438" y="173">Are there</text><text fill="#000000" stroke="none" font-family="Arial" font-size="13px" font-style="normal" font-weight="normal" text-decoration="none" x="446.5" y="186">empty</text><text fill="#000000" stroke="none" font-family="Arial" font-size="13px" font-style="normal" font-weight="normal" text-decoration="none" x="438" y="199">fields left</text><text fill="#000000" stroke="none" font-family="Arial" font-size="13px" font-style="normal" font-weight="normal" text-decoration="none" x="448.5" y="212">in the</text><text fill="#000000" stroke="none" font-family="Arial" font-size="13px" font-style="normal" font-weight="normal" text-decoration="none" x="440" y="225">sudoku?</text></g></g><g transform="translate(-246,-62) scale(1,1)"><path fill="none" stroke="#000000" d="M 464 104 L 464 128" stroke-miterlimit="10"/></g><g transform="translate(-246,-62) scale(1,1)"><path fill="#000000" stroke="none" d="M 459.790482243984 117.83732514237585 L 464 128 L 468.209517756016 117.83732514237585"/></g><g transform="translate(-246,-62) scale(1,1)"><path fill="none" stroke="#000000" d="M 459.790482243984 117.83732514237585 L 464 128 L 468.209517756016 117.83732514237585 L 459.790482243984 117.83732514237585" stroke-miterlimit="10"/></g><g transform="translate(-246,-62) scale(1,1)"><path fill="none" stroke="#000000" d="M 463 257 L 463 296" stroke-miterlimit="10"/></g><g transform="translate(-246,-62) scale(1,1)"><path fill="#000000" stroke="none" d="M 458.790482243984 285.83732514237585 L 463 296 L 467.209517756016 285.83732514237585"/></g><g transform="translate(-246,-62) scale(1,1)"><path fill="none" stroke="#000000" d="M 458.790482243984 285.83732514237585 L 463 296 L 467.209517756016 285.83732514237585 L 458.790482243984 285.83732514237585" stroke-miterlimit="10"/></g><g transform="translate(-246,-62) scale(1,1)"><g><path fill="none" stroke="none"/><text fill="#000000" stroke="none" font-family="Arial" font-size="13px" font-style="normal" font-weight="normal" text-decoration="none" x="465.5" y="281.5">Yes</text></g></g><g transform="translate(-246,-62) scale(1,1)"><rect fill="#ffffff" stroke="none" x="688" y="168" width="74" height="58"/></g><g transform="translate(-246,-62) scale(1,1)"><path fill="none" stroke="#000000" d="M 688 168 L 762 168 L 762 226 L 688 226 L 688 168 Z Z" stroke-miterlimit="10"/></g><g transform="translate(-246,-62) scale(1,1)"><g><path fill="none" stroke="none"/><text fill="#000000" stroke="none" font-family="Arial" font-size="13px" font-style="normal" font-weight="normal" text-decoration="none" x="710" y="190.5">Save</text><text fill="#000000" stroke="none" font-family="Arial" font-size="13px" font-style="normal" font-weight="normal" text-decoration="none" x="706" y="203.5">solved</text><text fill="#000000" stroke="none" font-family="Arial" font-size="13px" font-style="normal" font-weight="normal" text-decoration="none" x="703" y="216.5">Sudoku</text></g></g><g transform="translate(-246,-62) scale(1,1)"><path fill="none" stroke="#000000" d="M 521 192 L 688 192" stroke-miterlimit="10"/></g><g transform="translate(-246,-62) scale(1,1)"><path fill="#000000" stroke="none" d="M 677.8373251423759 196.209517756016 L 688 192 L 677.8373251423758 187.790482243984"/></g><g transform="translate(-246,-62) scale(1,1)"><path fill="none" stroke="#000000" d="M 677.8373251423759 196.209517756016 L 688 192 L 677.8373251423758 187.790482243984 L 677.8373251423759 196.209517756016" stroke-miterlimit="10"/></g><g transform="translate(-246,-62) scale(1,1)"><g><path fill="none" stroke="none"/><text fill="#000000" stroke="none" font-family="Arial" font-size="13px" font-style="normal" font-weight="normal" text-decoration="none" x="605" y="186">No</text></g></g></g></svg>